<?xml version="1.0" encoding="UTF-8"?>
<svg xmlns="http://www.w3.org/2000/svg" viewBox="0 0 64 64" width="64" height="64" aria-hidden="true">
  <title>Random Name Picker</title>
  <g shape-rendering="geometricPrecision"><path d="M 32 32 L 32.000 2.000 A 30 30 0 0 1 45.942 5.436 Z" fill="#6366f1"/><path d="M 32 32 L 45.942 5.436 A 30 30 0 0 1 56.690 14.958 Z" fill="#8b5cf6"/><path d="M 32 32 L 56.690 14.958 A 30 30 0 0 1 61.781 28.384 Z" fill="#a855f7"/><path d="M 32 32 L 61.781 28.384 A 30 30 0 0 1 60.050 42.638 Z" fill="#d946ef"/><path d="M 32 32 L 60.050 42.638 A 30 30 0 0 1 51.894 54.455 Z" fill="#ec4899"/><path d="M 32 32 L 51.894 54.455 A 30 30 0 0 1 39.179 61.128 Z" fill="#f43f5e"/><path d="M 32 32 L 39.179 61.128 A 30 30 0 0 1 24.821 61.128 Z" fill="#f97316"/><path d="M 32 32 L 24.821 61.128 A 30 30 0 0 1 12.106 54.455 Z" fill="#eab308"/><path d="M 32 32 L 12.106 54.455 A 30 30 0 0 1 3.950 42.638 Z" fill="#22c55e"/><path d="M 32 32 L 3.950 42.638 A 30 30 0 0 1 2.219 28.384 Z" fill="#14b8a6"/><path d="M 32 32 L 2.219 28.384 A 30 30 0 0 1 7.310 14.958 Z" fill="#06b6d4"/><path d="M 32 32 L 7.310 14.958 A 30 30 0 0 1 18.058 5.436 Z" fill="#0ea5e9"/><path d="M 32 32 L 18.058 5.436 A 30 30 0 0 1 32.000 2.000 Z" fill="#3b82f6"/></g>
  <circle cx="32" cy="32" r="12" fill="#0f172a" stroke="#6366f1" stroke-width="2"/>
  <circle cx="32" cy="32" r="30" fill="none" stroke="#0f172a" stroke-width="1"/>
</svg>
